<?xml version="1.0" encoding="UTF-8" standalone="no"?>
<!DOCTYPE svg PUBLIC "-//W3C//DTD SVG 1.1//EN" "http://www.w3.org/Graphics/SVG/1.1/DTD/svg11.dtd">
<svg width="100%" height="100%" viewBox="0 0 53 53" version="1.1" xmlns="http://www.w3.org/2000/svg" xmlns:xlink="http://www.w3.org/1999/xlink" xml:space="preserve" xmlns:serif="http://www.serif.com/" style="fill-rule:evenodd;clip-rule:evenodd;">
    <g transform="matrix(0.0981481,0,0,0.0981481,0,0)">
        <g>
            <path d="M149.8,246.58C155.8,249.12 161.74,252.23 167.76,254.94C171.41,256.58 174.81,258.77 178.48,260.6C180.98,261.84 183.637,263.313 186.45,265.02C206.49,277.18 225.14,291.303 242.4,307.39C242.883,307.848 243.652,307.844 244.13,307.38C244.643,306.887 245.073,306.323 245.42,305.69C250.18,297.07 255.463,289.017 261.27,281.53C263.11,279.16 260.94,276.18 259.07,274.49C254.95,270.78 251.94,266.47 248.11,262.61C245.5,259.99 242.98,257.38 240.08,255.04C236.8,252.38 233.81,249.43 230.45,246.67C216.75,235.423 202.517,226.007 187.75,218.42C164.683,206.573 140.04,198.72 113.82,194.86C113.771,194.853 113.722,194.849 113.673,194.849C113.124,194.849 112.673,195.301 112.673,195.849C112.673,195.89 112.675,195.93 112.68,195.97C114.193,208.463 116.877,220.947 120.73,233.42C121.397,235.567 122.813,236.967 124.98,237.62C133.193,240.08 141.467,243.067 149.8,246.58" style="fill:none;fill-rule:nonzero;stroke:rgb(128,128,128);stroke-width:2px;"/>
            <path d="M375.57,253.01C388.523,246.89 401.357,241.827 414.07,237.82C416.57,237.027 418.2,235.26 418.96,232.52C422.107,221.2 424.46,210.853 426.02,201.48C426.347,199.473 426.44,197.433 426.3,195.36C426.273,194.967 426.067,194.8 425.68,194.86C398.92,198.727 373.563,206.88 349.61,219.32C347.477,220.427 345.427,221.567 343.46,222.74C338.4,225.77 333.1,228.63 328.32,231.86C318.58,238.433 309.293,245.673 300.46,253.58C297.167,256.527 292.36,261.28 286.04,267.84C282.92,271.08 280.38,274.49 277.36,277.78C276.227,279.013 276.257,280.217 277.45,281.39C278.537,282.45 279.493,283.553 280.32,284.7C285.053,291.207 289.533,298.337 293.76,306.09C294.6,307.63 295.89,308.51 297.49,306.97C315.783,289.463 336.557,274.193 359.81,261.16C365.197,258.14 370.45,255.423 375.57,253.01" style="fill:none;fill-rule:nonzero;stroke:rgb(128,128,128);stroke-width:2px;"/>
            <path d="M430.04,288.53C438.847,285.177 447.7,282.217 456.6,279.65C458.287,279.163 459.863,278.493 461.33,277.64C461.637,277.467 461.86,277.217 462,276.89C463.1,274.27 463.92,271.683 464.46,269.13C466.647,258.703 468.533,248.693 470.12,239.1C470.28,238.133 470.303,237.133 470.19,236.1C470.163,235.887 470.047,235.793 469.84,235.82C450.933,238.34 432.957,242.433 415.91,248.1C409.043,250.387 401.947,253.02 394.62,256C365.9,267.7 339.18,284.62 315.54,304.81C311.22,308.49 307.28,312.64 302.94,316.17C300.52,318.13 297.983,320.777 295.33,324.11C291.77,328.57 287.39,332.05 283.93,336.68C281.75,339.593 279.39,342.373 276.85,345.02C276.351,345.544 276.304,346.358 276.74,346.93C283.42,355.723 289.2,364.563 294.08,373.45C294.507,374.224 295.324,374.706 296.208,374.706C296.965,374.706 297.681,374.352 298.14,373.75C300.24,370.977 302.517,368.623 304.97,366.69C308.99,363.52 312.44,359.8 316.22,356.54C332.053,342.927 348.7,330.71 366.16,319.89C373.74,315.19 381.85,310.94 389.56,306.6C392.713,304.82 396.097,303.103 399.71,301.45C409.91,296.78 419.79,292.44 430.04,288.53" style="fill:none;fill-rule:nonzero;stroke:rgb(128,128,128);stroke-width:2px;"/>
            <path d="M154.95,260.32C128.5,247.97 100.1,240.06 70.82,235.99C70.762,235.982 70.704,235.979 70.646,235.978C69.884,235.974 69.253,236.594 69.249,237.351C69.249,237.411 69.252,237.471 69.26,237.53C70.647,248.797 72.76,260.23 75.6,271.83C76,273.477 76.55,275.067 77.25,276.6C77.603,277.387 78.177,277.943 78.97,278.27C83.1,279.99 87.48,280.74 91.63,282.15C114.35,289.877 133.963,298.14 150.47,306.94C159.87,311.94 170.343,318.067 181.89,325.32C188.12,329.23 194.22,334.03 200.3,338.44C207.353,343.567 214.72,349.37 222.4,355.85C225.33,358.32 227.8,361.16 230.79,363.48C234.71,366.54 238.04,370.2 241.55,373.64C243.103,375.16 244.393,374.987 245.42,373.12C250.147,364.513 255.793,355.767 262.36,346.88C262.752,346.361 262.731,345.632 262.31,345.13C260.297,342.71 258.317,340.253 256.37,337.76C251.65,331.74 246.02,326.63 241.06,321.04C238.09,317.69 234.51,314.99 231.32,311.8C228.993,309.467 226.53,307.18 223.93,304.94C202.977,286.88 179.983,272.007 154.95,260.32" style="fill:none;fill-rule:nonzero;stroke:rgb(128,128,128);stroke-width:2px;"/>
            <path d="M308.85,464.14C306.303,466.56 303.39,468.247 300.11,469.2C300.035,469.222 299.957,469.233 299.878,469.233C299.508,469.233 299.181,468.986 299.08,468.63C298.793,467.623 298.387,466.653 297.86,465.72C291.93,455.28 285.86,444.86 279,435.15C276.353,431.403 273.707,427.64 271.06,423.86C270.739,423.399 270.211,423.124 269.649,423.124C269.1,423.124 268.584,423.387 268.26,423.83C258.053,437.71 248.82,452.383 240.56,467.85C240.111,468.693 239.086,469.066 238.2,468.71C235.78,467.743 233.523,466.537 231.43,465.09C230.65,464.557 230.57,463.933 231.19,463.22C232.44,461.79 232.69,459.95 233.64,458.31C242.113,443.57 251.473,429.173 261.72,415.12C263.27,412.99 260.4,409.74 258.96,408.28C257.92,407.227 256.913,406.107 255.94,404.92C253.467,401.907 250.91,398.943 248.27,396.03C243.41,390.677 237.587,384.68 230.8,378.04C225.907,373.253 221.07,368.767 216.29,364.58C198.737,349.2 179.947,335.733 159.92,324.18C118.7,300.39 73.8,284.63 26.31,278.15C25.15,277.99 23.997,277.91 22.85,277.91C22.592,277.906 22.37,278.09 22.33,278.34C21.963,280.353 21.837,282.31 21.95,284.21C23.32,306.61 27.64,329.06 34.89,350.45C36.957,356.543 39.14,362.12 41.44,367.18C43.79,372.37 45.64,377.12 48.13,381.7C50.763,386.547 53.66,391.683 56.82,397.11C65.02,411.203 73.937,423.097 83.57,432.79C88.97,438.22 93.6,444.48 99.31,449.23C104.66,453.68 109.1,458.42 114.23,462.92C123.16,470.75 132.8,477.02 142.78,482.97C174.74,502 210.28,513.41 247.23,516.55C251.27,516.89 255.17,517.61 259.32,517.56C262.073,517.533 264.857,517.613 267.67,517.8C271.82,518.07 276.01,517.6 280.25,517.55C283.19,517.51 286.333,517.303 289.68,516.93C296.013,516.23 302.097,515.447 307.93,514.58C340.73,509.71 373.63,497.41 402.25,478.98C438.4,455.7 468.83,423.28 488.75,384.91C493.637,375.497 497.507,367.033 500.36,359.52C509.133,336.387 514.477,312.027 516.39,286.44C516.58,283.95 516.41,281.42 516.31,278.93C516.277,278.13 515.86,277.78 515.06,277.88C494.313,280.42 472.863,285.273 450.71,292.44C444.083,294.587 437.207,297.033 430.08,299.78C423.427,302.34 416.48,305.32 409.24,308.72C379.56,322.64 352.407,339.933 327.78,360.6C325.27,362.7 322.89,364.99 320.4,367C318.467,368.547 316.647,370.17 314.94,371.87C309.18,377.603 303.44,383.35 297.72,389.11C290.84,396.04 284.56,403.38 278.16,410.96C277.031,412.295 276.961,414.242 277.99,415.65C282.097,421.257 286.37,427.357 290.81,433.95C295.59,441.043 300.843,449.687 306.57,459.88C307.243,461.087 308.02,462.21 308.9,463.25C309.16,463.557 309.143,463.853 308.85,464.14" style="fill:none;fill-rule:nonzero;stroke:rgb(128,128,128);stroke-width:2px;"/>
            <path d="M267.53,290.33C262.25,297.96 257.01,305.77 252.82,313.79C252.04,315.283 252.173,316.737 253.22,318.15C255.72,321.53 258.483,324.693 261.51,327.64C264.34,330.4 266.17,333.68 269.29,336.25C269.757,336.637 270.461,336.574 270.86,336.11C272.87,333.76 274.56,331.15 276.67,328.89C279.77,325.557 282.917,322.053 286.11,318.38C287.309,317.003 287.452,314.987 286.46,313.46L271.54,290.4C271.097,289.71 270.332,289.292 269.512,289.292C268.721,289.292 267.98,289.68 267.53,290.33" style="fill:none;fill-rule:nonzero;stroke:rgb(128,128,128);stroke-width:2px;"/>
            <path d="M271.12,356.41C270.812,355.925 270.276,355.631 269.702,355.631C269.132,355.631 268.599,355.921 268.29,356.4L251.63,382.38C251.227,383.011 251.292,383.84 251.79,384.4L268.49,403.09C268.808,403.445 269.264,403.648 269.741,403.648C270.222,403.648 270.681,403.441 271,403.08L287.45,384.32C287.94,383.759 288.001,382.937 287.6,382.31L271.12,356.41" style="fill:none;fill-rule:nonzero;stroke:rgb(128,128,128);stroke-width:2px;"/>
        </g>
        <path d="M0,0L540,0L540,540L0,540L0,0ZM149.8,246.58C155.8,249.12 161.74,252.23 167.76,254.94C171.41,256.58 174.81,258.77 178.48,260.6C180.98,261.84 183.637,263.313 186.45,265.02C206.49,277.18 225.14,291.303 242.4,307.39C242.883,307.848 243.652,307.844 244.13,307.38C244.643,306.887 245.073,306.323 245.42,305.69C250.18,297.07 255.463,289.017 261.27,281.53C263.11,279.16 260.94,276.18 259.07,274.49C254.95,270.78 251.94,266.47 248.11,262.61C245.5,259.99 242.98,257.38 240.08,255.04C236.8,252.38 233.81,249.43 230.45,246.67C216.75,235.423 202.517,226.007 187.75,218.42C164.683,206.573 140.04,198.72 113.82,194.86C113.771,194.853 113.722,194.849 113.673,194.849C113.124,194.849 112.673,195.301 112.673,195.849C112.673,195.89 112.675,195.93 112.68,195.97C114.193,208.463 116.877,220.947 120.73,233.42C121.397,235.567 122.813,236.967 124.98,237.62C133.193,240.08 141.467,243.067 149.8,246.58ZM375.57,253.01C388.523,246.89 401.357,241.827 414.07,237.82C416.57,237.027 418.2,235.26 418.96,232.52C422.107,221.2 424.46,210.853 426.02,201.48C426.347,199.473 426.44,197.433 426.3,195.36C426.273,194.967 426.067,194.8 425.68,194.86C398.92,198.727 373.563,206.88 349.61,219.32C347.477,220.427 345.427,221.567 343.46,222.74C338.4,225.77 333.1,228.63 328.32,231.86C318.58,238.433 309.293,245.673 300.46,253.58C297.167,256.527 292.36,261.28 286.04,267.84C282.92,271.08 280.38,274.49 277.36,277.78C276.227,279.013 276.257,280.217 277.45,281.39C278.537,282.45 279.493,283.553 280.32,284.7C285.053,291.207 289.533,298.337 293.76,306.09C294.6,307.63 295.89,308.51 297.49,306.97C315.783,289.463 336.557,274.193 359.81,261.16C365.197,258.14 370.45,255.423 375.57,253.01ZM430.04,288.53C438.847,285.177 447.7,282.217 456.6,279.65C458.287,279.163 459.863,278.493 461.33,277.64C461.637,277.467 461.86,277.217 462,276.89C463.1,274.27 463.92,271.683 464.46,269.13C466.647,258.703 468.533,248.693 470.12,239.1C470.28,238.133 470.303,237.133 470.19,236.1C470.163,235.887 470.047,235.793 469.84,235.82C450.933,238.34 432.957,242.433 415.91,248.1C409.043,250.387 401.947,253.02 394.62,256C365.9,267.7 339.18,284.62 315.54,304.81C311.22,308.49 307.28,312.64 302.94,316.17C300.52,318.13 297.983,320.777 295.33,324.11C291.77,328.57 287.39,332.05 283.93,336.68C281.75,339.593 279.39,342.373 276.85,345.02C276.351,345.544 276.304,346.358 276.74,346.93C283.42,355.723 289.2,364.563 294.08,373.45C294.507,374.224 295.324,374.706 296.208,374.706C296.965,374.706 297.681,374.352 298.14,373.75C300.24,370.977 302.517,368.623 304.97,366.69C308.99,363.52 312.44,359.8 316.22,356.54C332.053,342.927 348.7,330.71 366.16,319.89C373.74,315.19 381.85,310.94 389.56,306.6C392.713,304.82 396.097,303.103 399.71,301.45C409.91,296.78 419.79,292.44 430.04,288.53ZM154.95,260.32C128.5,247.97 100.1,240.06 70.82,235.99C70.762,235.982 70.704,235.979 70.646,235.978C69.884,235.974 69.253,236.594 69.249,237.351C69.249,237.411 69.252,237.471 69.26,237.53C70.647,248.797 72.76,260.23 75.6,271.83C76,273.477 76.55,275.067 77.25,276.6C77.603,277.387 78.177,277.943 78.97,278.27C83.1,279.99 87.48,280.74 91.63,282.15C114.35,289.877 133.963,298.14 150.47,306.94C159.87,311.94 170.343,318.067 181.89,325.32C188.12,329.23 194.22,334.03 200.3,338.44C207.353,343.567 214.72,349.37 222.4,355.85C225.33,358.32 227.8,361.16 230.79,363.48C234.71,366.54 238.04,370.2 241.55,373.64C243.103,375.16 244.393,374.987 245.42,373.12C250.147,364.513 255.793,355.767 262.36,346.88C262.752,346.361 262.731,345.632 262.31,345.13C260.297,342.71 258.317,340.253 256.37,337.76C251.65,331.74 246.02,326.63 241.06,321.04C238.09,317.69 234.51,314.99 231.32,311.8C228.993,309.467 226.53,307.18 223.93,304.94C202.977,286.88 179.983,272.007 154.95,260.32ZM308.85,464.14C306.303,466.56 303.39,468.247 300.11,469.2C300.035,469.222 299.957,469.233 299.878,469.233C299.508,469.233 299.181,468.986 299.08,468.63C298.793,467.623 298.387,466.653 297.86,465.72C291.93,455.28 285.86,444.86 279,435.15C276.353,431.403 273.707,427.64 271.06,423.86C270.739,423.399 270.211,423.124 269.649,423.124C269.1,423.124 268.584,423.387 268.26,423.83C258.053,437.71 248.82,452.383 240.56,467.85C240.111,468.693 239.086,469.066 238.2,468.71C235.78,467.743 233.523,466.537 231.43,465.09C230.65,464.557 230.57,463.933 231.19,463.22C232.44,461.79 232.69,459.95 233.64,458.31C242.113,443.57 251.473,429.173 261.72,415.12C263.27,412.99 260.4,409.74 258.96,408.28C257.92,407.227 256.913,406.107 255.94,404.92C253.467,401.907 250.91,398.943 248.27,396.03C243.41,390.677 237.587,384.68 230.8,378.04C225.907,373.253 221.07,368.767 216.29,364.58C198.737,349.2 179.947,335.733 159.92,324.18C118.7,300.39 73.8,284.63 26.31,278.15C25.15,277.99 23.997,277.91 22.85,277.91C22.592,277.906 22.37,278.09 22.33,278.34C21.963,280.353 21.837,282.31 21.95,284.21C23.32,306.61 27.64,329.06 34.89,350.45C36.957,356.543 39.14,362.12 41.44,367.18C43.79,372.37 45.64,377.12 48.13,381.7C50.763,386.547 53.66,391.683 56.82,397.11C65.02,411.203 73.937,423.097 83.57,432.79C88.97,438.22 93.6,444.48 99.31,449.23C104.66,453.68 109.1,458.42 114.23,462.92C123.16,470.75 132.8,477.02 142.78,482.97C174.74,502 210.28,513.41 247.23,516.55C251.27,516.89 255.17,517.61 259.32,517.56C262.073,517.533 264.857,517.613 267.67,517.8C271.82,518.07 276.01,517.6 280.25,517.55C283.19,517.51 286.333,517.303 289.68,516.93C296.013,516.23 302.097,515.447 307.93,514.58C340.73,509.71 373.63,497.41 402.25,478.98C438.4,455.7 468.83,423.28 488.75,384.91C493.637,375.497 497.507,367.033 500.36,359.52C509.133,336.387 514.477,312.027 516.39,286.44C516.58,283.95 516.41,281.42 516.31,278.93C516.277,278.13 515.86,277.78 515.06,277.88C494.313,280.42 472.863,285.273 450.71,292.44C444.083,294.587 437.207,297.033 430.08,299.78C423.427,302.34 416.48,305.32 409.24,308.72C379.56,322.64 352.407,339.933 327.78,360.6C325.27,362.7 322.89,364.99 320.4,367C318.467,368.547 316.647,370.17 314.94,371.87C309.18,377.603 303.44,383.35 297.72,389.11C290.84,396.04 284.56,403.38 278.16,410.96C277.031,412.295 276.961,414.242 277.99,415.65C282.097,421.257 286.37,427.357 290.81,433.95C295.59,441.043 300.843,449.687 306.57,459.88C307.243,461.087 308.02,462.21 308.9,463.25C309.16,463.557 309.143,463.853 308.85,464.14ZM267.53,290.33C262.25,297.96 257.01,305.77 252.82,313.79C252.04,315.283 252.173,316.737 253.22,318.15C255.72,321.53 258.483,324.693 261.51,327.64C264.34,330.4 266.17,333.68 269.29,336.25C269.757,336.637 270.461,336.574 270.86,336.11C272.87,333.76 274.56,331.15 276.67,328.89C279.77,325.557 282.917,322.053 286.11,318.38C287.309,317.003 287.452,314.987 286.46,313.46L271.54,290.4C271.097,289.71 270.332,289.292 269.512,289.292C268.721,289.292 267.98,289.68 267.53,290.33ZM271.12,356.41C270.812,355.925 270.276,355.631 269.702,355.631C269.132,355.631 268.599,355.921 268.29,356.4L251.63,382.38C251.227,383.011 251.292,383.84 251.79,384.4L268.49,403.09C268.808,403.445 269.264,403.648 269.741,403.648C270.222,403.648 270.681,403.441 271,403.08L287.45,384.32C287.94,383.759 288.001,382.937 287.6,382.31L271.12,356.41Z" style="fill:none;fill-rule:nonzero;"/>
        <g transform="matrix(0.955057,0,0,0.955057,15.9549,15.9548)">
            <circle cx="266" cy="266" r="266" style="fill:rgb(25,138,139);"/>
        </g>
        <g transform="matrix(0.915963,0,0,0.922137,26.3538,24.7116)">
            <circle cx="266" cy="266" r="266" style="fill:rgb(1,94,138);"/>
        </g>
        <g transform="matrix(0.984513,0,0,0.984513,4.1846,5.5192)">
            <path d="M149.8,246.58C141.467,243.067 133.193,240.08 124.98,237.62C122.813,236.967 121.397,235.567 120.73,233.42C116.877,220.947 114.193,208.463 112.68,195.97C112.675,195.93 112.673,195.89 112.673,195.849C112.673,195.301 113.124,194.849 113.673,194.849C113.722,194.849 113.771,194.853 113.82,194.86C140.04,198.72 164.683,206.573 187.75,218.42C202.517,226.007 216.75,235.423 230.45,246.67C233.81,249.43 236.8,252.38 240.08,255.04C242.98,257.38 245.5,259.99 248.11,262.61C251.94,266.47 254.95,270.78 259.07,274.49C260.94,276.18 263.11,279.16 261.27,281.53C255.463,289.017 250.18,297.07 245.42,305.69C245.073,306.323 244.643,306.887 244.13,307.38C243.652,307.844 242.883,307.848 242.4,307.39C225.14,291.303 206.49,277.18 186.45,265.02C183.637,263.313 180.98,261.84 178.48,260.6C174.81,258.77 171.41,256.58 167.76,254.94C161.74,252.23 155.8,249.12 149.8,246.58Z" style="fill:white;fill-rule:nonzero;"/>
            <path d="M375.57,253.01C370.45,255.423 365.197,258.14 359.81,261.16C336.557,274.193 315.783,289.463 297.49,306.97C295.89,308.51 294.6,307.63 293.76,306.09C289.533,298.337 285.053,291.207 280.32,284.7C279.493,283.553 278.537,282.45 277.45,281.39C276.257,280.217 276.227,279.013 277.36,277.78C280.38,274.49 282.92,271.08 286.04,267.84C292.36,261.28 297.167,256.527 300.46,253.58C309.293,245.673 318.58,238.433 328.32,231.86C333.1,228.63 338.4,225.77 343.46,222.74C345.427,221.567 347.477,220.427 349.61,219.32C373.563,206.88 398.92,198.727 425.68,194.86C426.067,194.8 426.273,194.967 426.3,195.36C426.44,197.433 426.347,199.473 426.02,201.48C424.46,210.853 422.107,221.2 418.96,232.52C418.2,235.26 416.57,237.027 414.07,237.82C401.357,241.827 388.523,246.89 375.57,253.01Z" style="fill:white;fill-rule:nonzero;"/>
            <path d="M430.04,288.53C419.79,292.44 409.91,296.78 399.71,301.45C396.097,303.103 392.713,304.82 389.56,306.6C381.85,310.94 373.74,315.19 366.16,319.89C348.7,330.71 332.053,342.927 316.22,356.54C312.44,359.8 308.99,363.52 304.97,366.69C302.517,368.623 300.24,370.977 298.14,373.75C297.681,374.352 296.965,374.706 296.208,374.706C295.324,374.706 294.507,374.224 294.08,373.45C289.2,364.563 283.42,355.723 276.74,346.93C276.304,346.358 276.351,345.544 276.85,345.02C279.39,342.373 281.75,339.593 283.93,336.68C287.39,332.05 291.77,328.57 295.33,324.11C297.983,320.777 300.52,318.13 302.94,316.17C307.28,312.64 311.22,308.49 315.54,304.81C339.18,284.62 365.9,267.7 394.62,256C401.947,253.02 409.043,250.387 415.91,248.1C432.957,242.433 450.933,238.34 469.84,235.82C470.047,235.793 470.163,235.887 470.19,236.1C470.303,237.133 470.28,238.133 470.12,239.1C468.533,248.693 466.647,258.703 464.46,269.13C463.92,271.683 463.1,274.27 462,276.89C461.86,277.217 461.637,277.467 461.33,277.64C459.863,278.493 458.287,279.163 456.6,279.65C447.7,282.217 438.847,285.177 430.04,288.53Z" style="fill:white;fill-rule:nonzero;"/>
            <path d="M70.82,235.99C100.1,240.06 128.5,247.97 154.95,260.32C179.983,272.007 202.977,286.88 223.93,304.94C226.53,307.18 228.993,309.467 231.32,311.8C234.51,314.99 238.09,317.69 241.06,321.04C246.02,326.63 251.65,331.74 256.37,337.76C258.317,340.253 260.297,342.71 262.31,345.13C262.731,345.632 262.752,346.361 262.36,346.88C255.793,355.767 250.147,364.513 245.42,373.12C244.393,374.987 243.103,375.16 241.55,373.64C238.04,370.2 234.71,366.54 230.79,363.48C227.8,361.16 225.33,358.32 222.4,355.85C214.72,349.37 207.353,343.567 200.3,338.44C194.22,334.03 188.12,329.23 181.89,325.32C170.343,318.067 159.87,311.94 150.47,306.94C133.963,298.14 114.35,289.877 91.63,282.15C87.48,280.74 83.1,279.99 78.97,278.27C78.177,277.943 77.603,277.387 77.25,276.6C76.55,275.067 76,273.477 75.6,271.83C72.76,260.23 70.647,248.797 69.26,237.53C69.252,237.471 69.249,237.411 69.249,237.351C69.253,236.594 69.884,235.974 70.646,235.978C70.704,235.979 70.762,235.982 70.82,235.99Z" style="fill:white;fill-rule:nonzero;"/>
            <g transform="matrix(1,0,0,1,1,0)">
                <path d="M308.9,463.25C308.02,462.21 307.243,461.087 306.57,459.88C300.843,449.687 295.59,441.043 290.81,433.95C286.37,427.357 282.097,421.257 277.99,415.65C276.961,414.242 277.031,412.295 278.16,410.96C284.56,403.38 290.84,396.04 297.72,389.11C303.44,383.35 309.18,377.603 314.94,371.87C316.647,370.17 318.467,368.547 320.4,367C322.89,364.99 325.27,362.7 327.78,360.6C352.407,339.933 379.56,322.64 409.24,308.72C416.48,305.32 423.427,302.34 430.08,299.78C437.207,297.033 444.083,294.587 450.71,292.44C472.863,285.273 494.313,280.42 515.06,277.88C515.86,277.78 516.277,278.13 516.31,278.93C516.41,281.42 516.58,283.95 516.39,286.44C514.477,312.027 509.133,336.387 500.36,359.52C497.507,367.033 493.637,375.497 488.75,384.91C468.83,423.28 438.4,455.7 402.25,478.98C373.63,497.41 340.73,509.71 307.93,514.58C302.097,515.447 296.013,516.23 289.68,516.93C286.333,517.303 283.19,517.51 280.25,517.55C276.01,517.6 271.82,518.07 267.67,517.8C264.857,517.613 262.073,517.533 259.32,517.56C255.17,517.61 251.27,516.89 247.23,516.55C210.28,513.41 174.74,502 142.78,482.97C132.8,477.02 123.16,470.75 114.23,462.92C109.1,458.42 104.66,453.68 99.31,449.23C93.6,444.48 88.97,438.22 83.57,432.79C73.937,423.097 65.02,411.203 56.82,397.11C53.66,391.683 50.763,386.547 48.13,381.7C45.64,377.12 43.79,372.37 41.44,367.18C39.14,362.12 36.957,356.543 34.89,350.45C27.64,329.06 23.32,306.61 21.95,284.21C21.837,282.31 21.963,280.353 22.33,278.34C22.37,278.09 22.592,277.906 22.85,277.91C23.997,277.91 25.15,277.99 26.31,278.15C73.8,284.63 118.7,300.39 159.92,324.18C179.947,335.733 198.737,349.2 216.29,364.58C221.07,368.767 225.907,373.253 230.8,378.04C237.587,384.68 243.41,390.677 248.27,396.03C250.91,398.943 253.467,401.907 255.94,404.92C256.913,406.107 257.92,407.227 258.96,408.28C260.4,409.74 263.27,412.99 261.72,415.12C251.473,429.173 242.113,443.57 233.64,458.31C232.69,459.95 232.44,461.79 231.19,463.22C230.57,463.933 230.65,464.557 231.43,465.09C233.523,466.537 235.78,467.743 238.2,468.71C239.086,469.066 240.111,468.693 240.56,467.85C248.82,452.383 258.053,437.71 268.26,423.83C268.584,423.387 269.1,423.124 269.649,423.124C270.211,423.124 270.739,423.399 271.06,423.86C273.707,427.64 276.353,431.403 279,435.15C285.86,444.86 291.93,455.28 297.86,465.72C298.387,466.653 298.793,467.623 299.08,468.63C299.181,468.986 299.508,469.233 299.878,469.233C299.957,469.233 300.035,469.222 300.11,469.2C303.39,468.247 306.303,466.56 308.85,464.14C309.143,463.853 309.16,463.557 308.9,463.25Z" style="fill:white;fill-rule:nonzero;"/>
            </g>
            <path d="M252.82,313.79C257.01,305.77 262.25,297.96 267.53,290.33C267.98,289.68 268.721,289.292 269.512,289.292C270.332,289.292 271.097,289.71 271.54,290.4L286.46,313.46C287.452,314.987 287.309,317.003 286.11,318.38C282.917,322.053 279.77,325.557 276.67,328.89C274.56,331.15 272.87,333.76 270.86,336.11C270.461,336.574 269.757,336.637 269.29,336.25C266.17,333.68 264.34,330.4 261.51,327.64C258.483,324.693 255.72,321.53 253.22,318.15C252.173,316.737 252.04,315.283 252.82,313.79Z" style="fill:white;fill-rule:nonzero;"/>
            <path d="M271.12,356.41L287.6,382.31C288.001,382.937 287.94,383.759 287.45,384.32L271,403.08C270.681,403.441 270.222,403.648 269.741,403.648C269.264,403.648 268.808,403.445 268.49,403.09L251.79,384.4C251.292,383.84 251.227,383.011 251.63,382.38L268.29,356.4C268.599,355.921 269.132,355.631 269.702,355.631C270.276,355.631 270.812,355.925 271.12,356.41Z" style="fill:white;fill-rule:nonzero;"/>
        </g>
    </g>
</svg>
